<svg xmlns="http://www.w3.org/2000/svg" width="21" height="21" fill="none" viewBox="0 0 21 21"><path fill="#0F1138" d="M19.7785 0.0214499C19.7726 0.0230543 19.7667 0.0244983 19.7608 0.0262633C19.7593 0.0267045 19.7578 0.0270254 19.7563 0.0274666L0.423581 6.02714C0.17204 6.10523 0.000442082 6.33772 8.52885e-07 6.60113C-0.000440376 6.86455 0.170355 7.0976 0.421695 7.1765L7.87626 9.51702L6.46818 13.2947C6.38587 13.5155 6.43998 13.764 6.6066 13.9307C6.77351 14.0976 7.02216 14.1513 7.24257 14.0691L11.0202 12.6611L13.3608 20.1156C13.4396 20.3666 13.6722 20.5373 13.9352 20.5373C13.9355 20.5373 13.9359 20.5373 13.9362 20.5373C14.1996 20.5369 14.4321 20.3653 14.5102 20.1137L20.5097 0.780845C20.5102 0.779361 20.5105 0.777836 20.511 0.776352C20.5127 0.770576 20.5141 0.76476 20.5157 0.758984C20.6374 0.308249 20.2228 -0.098404 19.7785 0.0214499ZM2.62234 6.60547L16.8314 2.19587L8.54616 8.46541L2.62234 6.60547ZM8.05644 12.4807L9.16489 9.50711L16.8317 3.70555L11.03 11.3723L8.05644 12.4807ZM13.9317 17.9149L12.0718 11.991L18.3413 3.70579L13.9317 17.9149Z"/></svg>